<?xml version="1.0" standalone="no"?>
<!DOCTYPE svg PUBLIC "-//W3C//DTD SVG 20010904//EN"
 "http://www.w3.org/TR/2001/REC-SVG-20010904/DTD/svg10.dtd">
<svg version="1.0" xmlns="http://www.w3.org/2000/svg"
 width="512.000000pt" height="512.000000pt" viewBox="0 0 512.000000 512.000000"
 preserveAspectRatio="xMidYMid meet">

<g transform="translate(0.000000,512.000000) scale(0.100000,-0.100000)"
fill="#000000" stroke="none">
<path d="M942 3743 c-18 -9 -45 -32 -60 -51 -22 -29 -27 -48 -30 -108 l-4 -73
209 -3 210 -3 48 -30 c63 -39 111 -102 131 -173 32 -109 -15 -235 -110 -299
-70 -47 -102 -53 -303 -53 l-183 0 0 -44 0 -45 288 -3 287 -3 47 -27 c167 -99
198 -310 65 -443 -82 -81 -101 -85 -419 -85 l-269 0 3 -234 c3 -220 4 -236 24
-263 43 -58 79 -73 174 -73 l87 0 7 49 c14 110 113 251 222 321 99 63 253 87
373 59 170 -39 322 -196 362 -374 l12 -55 549 0 548 0 -2 964 c-3 957 -3 965
-24 992 -11 15 -33 37 -48 48 -27 21 -34 21 -1094 23 -973 2 -1070 1 -1100
-14z"/>
<path d="M531 3325 c-63 -54 -60 -146 8 -192 34 -23 37 -23 351 -23 314 0 317
0 351 23 68 46 71 138 8 192 l-31 25 -328 0 -328 0 -31 -25z"/>
<path d="M3370 2500 l0 -770 64 0 63 0 12 58 c30 150 147 287 299 351 78 33
224 41 308 16 173 -50 311 -195 346 -366 l12 -59 132 0 c73 0 140 3 149 6 42
16 45 46 45 409 l0 345 -41 45 -42 45 -393 0 -394 0 -32 29 -33 29 0 187 0
187 33 29 c32 29 33 29 164 29 l132 0 -59 61 c-33 34 -82 79 -108 100 l-49 39
-304 0 -304 0 0 -770z"/>
<path d="M378 2682 c-68 -41 -74 -134 -13 -189 l35 -33 486 0 c539 0 527 -1
559 66 19 41 19 68 -1 110 -31 65 -22 64 -556 64 -437 -1 -486 -2 -510 -18z"/>
<path d="M1520 1993 c-103 -36 -186 -125 -211 -226 -16 -64 -6 -165 20 -221
31 -63 93 -123 159 -154 82 -39 194 -38 273 1 67 32 132 99 162 165 33 73 30
190 -6 263 -73 149 -247 225 -397 172z"/>
<path d="M3866 1986 c-85 -36 -133 -81 -174 -166 -38 -78 -39 -191 -1 -270 33
-70 89 -126 159 -159 46 -22 69 -26 140 -26 73 0 92 4 137 28 66 34 116 83
150 150 24 45 28 63 28 142 0 79 -4 97 -28 142 -58 112 -154 174 -277 180 -63
3 -85 0 -134 -21z"/>
</g>
</svg>
