<?xml version="1.0" standalone="no"?>
<!DOCTYPE svg PUBLIC "-//W3C//DTD SVG 20010904//EN"
 "http://www.w3.org/TR/2001/REC-SVG-20010904/DTD/svg10.dtd">
<svg version="1.0" xmlns="http://www.w3.org/2000/svg"
 width="512.000000pt" height="512.000000pt" viewBox="0 0 512.000000 512.000000"
 preserveAspectRatio="xMidYMid meet">

<g transform="translate(0.000000,512.000000) scale(0.100000,-0.100000)"
fill="#000000" stroke="none">
<path d="M723 3846 c-198 -48 -371 -227 -412 -424 -8 -36 -11 -372 -11 -1075
0 -879 2 -1031 15 -1086 50 -210 216 -371 430 -416 105 -22 3525 -22 3629 0
194 41 347 174 415 358 l26 72 3 1040 c2 742 0 1057 -8 1100 -39 206 -222 391
-428 434 -82 17 -3589 14 -3659 -3z m3652 -260 c70 -27 147 -106 171 -176 14
-44 18 -86 19 -210 l0 -155 -2005 0 -2005 0 0 155 c1 181 14 233 76 303 44 51
106 85 176 97 27 4 829 7 1783 6 1687 -1 1736 -2 1785 -20z m190 -1531 l0
-730 -33 -67 c-37 -76 -85 -120 -162 -149 -49 -18 -108 -19 -1810 -19 -1702 0
-1761 1 -1810 19 -77 29 -125 73 -162 149 l-33 67 -3 719 c-2 396 -1 725 2
733 5 11 344 13 2008 11 l2003 -3 0 -730z"/>
<path d="M3354 1724 c-83 -41 -86 -177 -4 -219 24 -12 76 -15 286 -15 l256 0
33 33 c61 61 53 154 -17 197 -31 19 -50 20 -278 20 -198 0 -251 -3 -276 -16z"/>
</g>
</svg>
