<?xml version="1.0" standalone="no"?>
<!DOCTYPE svg PUBLIC "-//W3C//DTD SVG 20010904//EN"
 "http://www.w3.org/TR/2001/REC-SVG-20010904/DTD/svg10.dtd">
<svg version="1.0" xmlns="http://www.w3.org/2000/svg"
 width="512.000000pt" height="512.000000pt" viewBox="0 0 512.000000 512.000000"
 preserveAspectRatio="xMidYMid meet">

<g transform="translate(0.000000,512.000000) scale(0.100000,-0.100000)"
fill="#000000" stroke="none">
<path d="M0 2560 l0 -2010 90 0 90 0 0 2010 0 2010 -90 0 -90 0 0 -2010z"/>
<path d="M270 2560 l0 -2010 45 0 45 0 0 2010 0 2010 -45 0 -45 0 0 -2010z"/>
<path d="M540 2560 l0 -2010 45 0 45 0 0 2010 0 2010 -45 0 -45 0 0 -2010z"/>
<path d="M990 2560 l0 -2010 45 0 45 0 0 2010 0 2010 -45 0 -45 0 0 -2010z"/>
<path d="M1350 2560 l0 -2011 88 3 87 3 3 2008 2 2007 -90 0 -90 0 0 -2010z"/>
<path d="M1800 2559 l0 -2010 43 3 42 3 3 2008 2 2007 -45 0 -45 0 0 -2011z"/>
<path d="M1980 2559 l0 -2010 43 3 42 3 3 2008 2 2007 -45 0 -45 0 0 -2011z"/>
<path d="M2160 2559 l0 -2010 43 3 42 3 3 2008 2 2007 -45 0 -45 0 0 -2011z"/>
<path d="M2512 2563 l3 -2008 88 -3 87 -3 0 2011 0 2010 -90 0 -90 0 2 -2007z"/>
<path d="M2960 2560 l0 -2010 90 0 90 0 0 2010 0 2010 -90 0 -90 0 0 -2010z"/>
<path d="M3320 2560 l0 -2010 90 0 90 0 0 2010 0 2010 -90 0 -90 0 0 -2010z"/>
<path d="M3680 2560 l0 -2010 90 0 90 0 0 2010 0 2010 -90 0 -90 0 0 -2010z"/>
<path d="M3950 2560 l0 -2010 90 0 90 0 0 2010 0 2010 -90 0 -90 0 0 -2010z"/>
<path d="M4400 2560 l0 -2010 135 0 135 0 0 2010 0 2010 -135 0 -135 0 0
-2010z"/>
<path d="M4760 2560 l0 -2010 45 0 45 0 0 2010 0 2010 -45 0 -45 0 0 -2010z"/>
<path d="M4940 2560 l0 -2010 90 0 90 0 0 2010 0 2010 -90 0 -90 0 0 -2010z"/>
</g>
</svg>
