<?xml version="1.0" standalone="no"?>
<!DOCTYPE svg PUBLIC "-//W3C//DTD SVG 20010904//EN"
 "http://www.w3.org/TR/2001/REC-SVG-20010904/DTD/svg10.dtd">
<svg version="1.0" xmlns="http://www.w3.org/2000/svg"
 width="512.000000pt" height="512.000000pt" viewBox="0 0 512.000000 512.000000"
 preserveAspectRatio="xMidYMid meet">

<g transform="translate(0.000000,512.000000) scale(0.100000,-0.100000)"
fill="#000000" stroke="none">
<path d="M2420 4603 c-301 -28 -517 -87 -757 -204 -834 -408 -1289 -1322
-1112 -2236 87 -453 343 -879 713 -1188 123 -103 386 -265 429 -265 7 0 21 6
32 13 16 12 18 32 22 163 4 183 2 175 123 689 54 231 104 447 109 479 15 84
13 245 -4 351 -27 168 -11 314 49 441 45 95 111 165 194 206 55 27 76 32 136
32 217 -1 317 -177 258 -454 -12 -52 -48 -186 -81 -297 -33 -111 -67 -238 -77
-282 -16 -74 -16 -84 -1 -146 47 -190 225 -282 446 -230 260 62 453 307 533
677 18 85 22 135 22 288 0 212 -14 281 -84 425 -81 169 -202 290 -375 376
-157 77 -226 92 -440 93 -220 1 -303 -16 -470 -99 -124 -61 -214 -130 -295
-226 -154 -185 -229 -409 -217 -652 9 -171 53 -309 140 -436 21 -29 37 -58 37
-65 -1 -36 -71 -281 -85 -295 -14 -15 -20 -13 -73 13 -79 41 -205 171 -263
271 -138 237 -188 511 -144 780 91 553 479 948 1049 1065 539 111 1047 -30
1379 -381 278 -294 382 -667 312 -1114 -84 -530 -405 -924 -853 -1047 -107
-30 -360 -32 -442 -5 -89 30 -159 67 -216 113 -76 62 -112 56 -133 -24 -120
-467 -134 -510 -227 -694 -44 -89 -52 -112 -44 -132 10 -28 11 -28 145 -55
333 -68 690 -45 1025 65 520 171 967 558 1214 1051 148 296 210 562 210 893 0
200 -15 328 -59 500 -172 678 -675 1220 -1337 1442 -247 82 -564 123 -788 101z"/>
</g>
</svg>
