<?xml version="1.0" standalone="no"?>
<!DOCTYPE svg PUBLIC "-//W3C//DTD SVG 20010904//EN"
 "http://www.w3.org/TR/2001/REC-SVG-20010904/DTD/svg10.dtd">
<svg version="1.0" xmlns="http://www.w3.org/2000/svg"
 width="512.000000pt" height="512.000000pt" viewBox="0 0 512.000000 512.000000"
 preserveAspectRatio="xMidYMid meet">

<g transform="translate(0.000000,512.000000) scale(0.100000,-0.100000)"
fill="#000000" stroke="none">
<path d="M4615 4830 c-160 -159 -294 -290 -297 -290 -4 0 -45 25 -90 57 -146
99 -323 172 -514 209 -133 27 -376 24 -514 -5 -199 -42 -381 -125 -550 -249
-47 -35 -548 -529 -1326 -1306 -1411 -1410 -1309 -1297 -1309 -1456 0 -159
-42 -109 822 -971 856 -853 797 -804 953 -804 72 0 93 4 140 27 46 23 258 231
1336 1310 1347 1349 1325 1327 1416 1507 99 198 141 375 141 606 1 291 -70
529 -227 763 -31 46 -56 86 -56 90 0 4 131 137 290 297 l290 291 0 68 c0 66
-1 70 -39 107 -37 38 -41 39 -107 39 l-68 0 -291 -290z m-1010 -320 c96 -14
173 -35 263 -71 76 -30 222 -114 222 -127 0 -4 -62 -70 -139 -146 l-138 -138
-31 16 c-84 44 -222 56 -331 31 -252 -60 -430 -315 -393 -565 14 -101 44 -174
100 -248 121 -160 319 -237 507 -199 112 23 196 67 271 142 96 97 154 235 154
368 0 61 -23 165 -46 209 l-16 31 138 138 c77 77 143 138 148 136 16 -5 96
-147 127 -222 56 -142 73 -234 72 -400 0 -128 -4 -165 -27 -250 -30 -115 -96
-260 -163 -354 -54 -78 -2510 -2541 -2533 -2541 -20 0 -1470 1450 -1470 1470
0 9 559 574 1243 1256 1071 1070 1254 1249 1329 1298 212 139 473 200 713 166z
m43 -746 c146 -60 177 -253 57 -351 -121 -100 -296 -43 -337 110 -42 158 128
305 280 241z"/>
<path d="M2059 3128 c-20 -11 -46 -38 -58 -58 -21 -38 -21 -41 -21 -935 0
-895 0 -897 21 -935 42 -75 143 -102 209 -57 18 12 43 35 54 50 21 28 21 31
21 942 0 911 0 914 -21 942 -53 72 -135 92 -205 51z"/>
<path d="M1383 2520 c-101 -24 -207 -110 -257 -207 -99 -197 -18 -437 182
-535 62 -31 73 -33 172 -33 99 0 110 2 171 32 154 76 249 253 221 413 -29 161
-133 281 -281 324 -57 17 -153 19 -208 6z m161 -331 c14 -17 26 -41 26 -54 0
-13 -12 -37 -26 -54 -52 -63 -154 -25 -154 58 0 11 12 33 26 50 20 25 34 31
64 31 30 0 44 -6 64 -31z"/>
<path d="M2693 2520 c-154 -36 -284 -189 -299 -351 -8 -76 13 -168 51 -234 36
-60 115 -132 183 -163 50 -24 69 -27 162 -27 99 0 110 2 171 32 228 112 295
404 139 602 -94 119 -260 176 -407 141z m151 -322 c40 -35 43 -78 11 -116 -20
-24 -35 -32 -60 -32 -47 0 -64 8 -80 41 -21 40 -19 63 11 98 32 39 80 42 118
9z"/>
</g>
</svg>
